<svg width="18" height="18" viewBox="0 0 18 18" fill="none" xmlns="http://www.w3.org/2000/svg">
<g clip-path="url(#clip0_1_500)">
<path d="M14.25 4.49985H13.3305C14.3903 3.46485 14.5522 2.1036 13.7393 1.01985C13.3305 0.473852 12.7343 0.121352 12.06 0.0253521C11.3835 -0.0728979 10.7137 0.101852 10.1693 0.509852C9.66075 0.890852 9.28575 1.3761 9.009 1.8696C8.73225 1.37535 8.35725 0.890852 7.84875 0.509852C7.30425 0.101102 6.633 -0.0728979 5.95875 0.0253521C5.2845 0.121352 4.68825 0.474602 4.2795 1.01985C3.471 2.0976 3.627 3.44985 4.68975 4.49985H3.75C1.68225 4.49985 0 6.1821 0 8.24985V14.2499C0 16.3176 1.68225 17.9999 3.75 17.9999H14.25C16.3177 17.9999 18 16.3176 18 14.2499V8.24985C18 6.1821 16.3177 4.49985 14.25 4.49985ZM11.07 1.70985C11.2537 1.57185 11.4727 1.49985 11.6978 1.49985C12 1.49985 12.3712 1.6956 12.54 1.91985C13.0207 2.56035 12.5723 3.15285 12.2828 3.4296C11.112 4.46835 9.87 4.49985 9.76425 4.5006H9.7545C9.76875 4.43235 9.77325 4.3611 9.76725 4.28835L9.76575 4.2726C9.8325 3.8241 10.1115 2.42835 11.07 1.70985ZM5.757 3.44685C5.4465 3.1506 4.99875 2.56035 5.4795 1.9191C5.64825 1.69485 5.8935 1.54935 6.171 1.5096C6.45075 1.4736 6.72525 1.54185 6.9495 1.70985C7.90875 2.4291 8.18775 3.82635 8.2545 4.27185L8.253 4.2876C8.247 4.36035 8.2515 4.4316 8.26575 4.49985H8.256C8.15025 4.49985 6.90825 4.4676 5.757 3.44685ZM3.75 5.9991H8.118C7.55475 7.46235 5.3685 7.49835 5.2485 7.4991C4.8345 7.4991 4.49925 7.8351 4.49925 8.2491C4.49925 8.6631 4.83525 8.9991 5.24925 8.9991C6.312 8.9991 8.022 8.6331 8.99925 7.4571C9.9765 8.63385 11.6865 8.9991 12.7493 8.9991C13.1632 8.9991 13.4993 8.66385 13.4993 8.2491C13.4993 7.83435 13.1632 7.4991 12.7493 7.4991C12.6428 7.4991 10.4408 7.4796 9.879 5.9991H14.2493C15.4898 5.9991 16.4993 7.0086 16.4993 8.2491V12.7491H1.5V8.2491C1.5 7.0086 2.5095 5.9991 3.75 5.9991ZM14.25 16.4991H3.75C2.5095 16.4991 1.5 15.4896 1.5 14.2491H16.5C16.5 15.4896 15.4905 16.4991 14.25 16.4991Z" fill="#5A5A5A"/>
</g>
<defs>
<clipPath id="clip0_1_500">
<rect width="18" height="18" fill="white"/>
</clipPath>
</defs>
</svg>
